<?xml version="1.0" standalone="no"?>
<!DOCTYPE svg PUBLIC "-//W3C//DTD SVG 20010904//EN"
 "http://www.w3.org/TR/2001/REC-SVG-20010904/DTD/svg10.dtd">
<svg version="1.0" xmlns="http://www.w3.org/2000/svg"
 width="16.000000pt" height="16.000000pt" viewBox="0 0 16.000000 16.000000"
 preserveAspectRatio="xMidYMid meet">
<metadata>
Created by potrace 1.11, written by Peter Selinger 2001-2013
</metadata>
<g transform="translate(0.000000,16.000000) scale(0.002778,-0.002778)"
fill="#000000" stroke="none">
<path d="M1350 5700 c-20 -20 -20 -33 -20 -890 l0 -870 -157 0 c-190 0 -225
-8 -280 -65 -49 -52 -66 -110 -51 -181 12 -57 79 -131 126 -140 18 -4 32 -10
32 -13 0 -4 -117 -60 -260 -125 -277 -126 -310 -148 -345 -232 -18 -43 -20
-137 -4 -184 7 -18 209 -300 450 -627 l439 -595 0 -72 c0 -181 104 -337 259
-390 l36 -13 5 -264 5 -264 32 -68 c52 -109 106 -153 316 -257 99 -50 188 -90
198 -90 12 0 20 -11 24 -33 31 -139 166 -272 320 -313 71 -19 739 -19 810 0
154 41 289 174 320 313 4 22 12 33 24 33 10 0 99 40 198 90 210 104 264 148
316 257 l32 68 5 264 5 264 36 13 c155 53 259 209 259 390 l0 72 439 595 c241
327 443 609 450 627 16 47 14 141 -4 184 -35 84 -68 106 -345 232 -143 64
-260 121 -260 124 0 4 14 10 32 14 47 9 114 83 126 140 15 71 -2 129 -51 181
-55 57 -90 65 -279 65 l-158 0 0 870 c0 857 0 870 -20 890 -20 20 -33 20
-1530 20 -1497 0 -1510 0 -1530 -20z m290 -249 c6 -12 10 -120 10 -280 0 -223
-2 -262 -16 -275 -8 -9 -24 -16 -34 -16 -10 0 -26 7 -34 16 -14 13 -16 52 -16
275 0 160 4 268 10 280 7 12 21 19 40 19 19 0 33 -7 40 -19z m-6 -707 c24 -23
23 -240 -1 -266 -20 -22 -41 -23 -65 -1 -15 14 -18 32 -18 134 0 124 8 149 50
149 10 0 26 -7 34 -16z m22 -1048 c19 -14 19 -38 22 -998 1 -541 0 -998 -3
-1017 -13 -71 -102 -108 -153 -63 -11 9 -62 76 -114 147 -52 72 -268 364 -480
651 -458 620 -448 605 -455 649 -7 46 21 119 55 144 24 16 302 144 917 420 99
44 183 81 186 81 3 0 14 -6 25 -14z m2981 -212 c634 -285 603 -269 631 -324
31 -59 25 -112 -17 -174 -17 -25 -199 -272 -403 -548 -204 -277 -421 -570
-481 -653 -60 -82 -118 -158 -129 -167 -51 -45 -140 -8 -153 63 -3 19 -4 476
-3 1017 3 962 3 984 22 998 11 8 28 12 38 8 10 -3 233 -102 495 -220z m-647
-891 c0 -944 0 -947 21 -991 37 -75 124 -115 215 -98 23 5 54 23 85 53 54 50
58 50 30 -5 -39 -74 -145 -151 -211 -152 -14 0 -30 -4 -37 -8 -8 -5 -12 -90
-15 -297 l-3 -290 -28 -57 c-15 -31 -44 -71 -63 -88 -57 -49 -346 -189 -427
-206 -119 -25 -168 -12 -414 110 l-213 106 0 133 0 134 41 7 c44 7 99 52 99
80 0 13 12 16 55 16 124 0 159 44 153 190 -2 74 -7 92 -30 127 -16 24 -44 49
-70 62 -42 20 -60 21 -298 21 -238 0 -256 -1 -298 -21 -26 -13 -54 -38 -70
-62 -23 -35 -27 -53 -30 -132 -6 -144 29 -185 153 -185 43 0 55 -3 55 -16 0
-28 55 -73 99 -80 l41 -7 0 -134 0 -133 -212 -106 c-247 -122 -296 -135 -415
-110 -81 17 -370 157 -427 206 -19 17 -48 57 -63 88 l-28 57 -3 290 c-3 207
-7 292 -15 297 -7 4 -23 8 -37 8 -66 1 -172 78 -211 152 -28 55 -24 55 30 5
31 -30 62 -48 85 -53 91 -17 178 23 215 98 21 44 21 47 21 991 l0 947 1110 0
1110 0 0 -947z m-1388 -2234 c154 -154 403 -153 556 0 l52 52 31 -17 c61 -31
115 -46 191 -53 l78 -6 -24 -50 c-31 -66 -107 -136 -182 -166 -58 -24 -62 -24
-424 -24 -362 0 -366 0 -424 24 -75 30 -151 100 -182 166 l-24 50 78 6 c69 6
162 33 202 59 8 5 16 10 18 10 2 0 26 -23 54 -51z"/>
<path d="M2323 2520 c-12 -5 -26 -18 -32 -29 -15 -26 -15 -725 -1 -751 27 -50
100 -49 125 0 12 24 15 88 15 368 0 211 -4 350 -10 369 -6 17 -22 35 -36 42
-29 13 -31 13 -61 1z"/>
<path d="M3373 2518 c-39 -19 -43 -55 -43 -410 0 -280 3 -344 15 -368 25 -49
98 -50 125 0 6 12 10 152 10 378 0 328 -2 362 -17 380 -22 26 -61 35 -90 20z"/>
</g>
</svg>
